{
  "accessors": [
    {
      "bufferView": 1,
      "componentType": 5126,
      "count": 6944,
      "max": [
        165.12445068359375,
        161.22122192382812,
        141.87847900390625
      ],
      "min": [
        -240.35408020019531,
        -88.524436950683594,
        -164.88201904296875
      ],
      "type": "VEC3"
    },
    {
      "bufferView": 1,
      "byteOffset": 83328,
      "componentType": 5126,
      "count": 6944,
      "max": [
        1,
        1,
        1
      ],
      "min": [
        -1,
        -1,
        -1
      ],
      "type": "VEC3"
    },
    {
      "bufferView": 2,
      "componentType": 5126,
      "count": 6944,
      "max": [
        1,
        1,
        1,
        1
      ],
      "min": [
        -1,
        -1,
        -0.99998974800109863,
        -1
      ],
      "type": "VEC4"
    },
    {
      "bufferView": 0,
      "componentType": 5125,
      "count": 39984,
      "max": [
        6943
      ],
      "min": [
        0
      ],
      "type": "SCALAR"
    }
  ],
  "asset": {
    "extras": {
      "author": "i.isabelgordon (https://sketchfab.com/i.isabelgordon)",
      "license": "CC-BY-4.0 (http://creativecommons.org/licenses/by/4.0/)",
      "source": "https://sketchfab.com/models/08fed7ab59514804b07804e40a57ef33",
      "title": "blood platelet / thrombocyte"
    },
    "generator": "Sketchfab-3.18.7",
    "version": "2.0"
  },
  "bufferViews": [
    {
      "buffer": 0,
      "byteLength": 159936,
      "byteOffset": 0,
      "name": "floatBufferViews",
      "target": 34963
    },
    {
      "buffer": 0,
      "byteLength": 166656,
      "byteOffset": 159936,
      "byteStride": 12,
      "name": "floatBufferViews",
      "target": 34962
    },
    {
      "buffer": 0,
      "byteLength": 111104,
      "byteOffset": 326592,
      "byteStride": 16,
      "name": "floatBufferViews",
      "target": 34962
    }
  ],
  "buffers": [
    {
      "byteLength": 437696,
      "uri": "scene.bin"
    }
  ],
  "materials": [
    {
      "doubleSided": true,
      "emissiveFactor": [
        0,
        0,
        0
      ],
      "name": "Material_28",
      "pbrMetallicRoughness": {
        "baseColorFactor": [
          1,
          0.95,
          0.2,
          1
        ],
        "metallicFactor": 0.4,
        "roughnessFactor": 0.8
      }
    }
  ],
  "meshes": [
    {
      "name": "Sphere002_Material #28_0",
      "primitives": [
        {
          "attributes": {
            "NORMAL": 1,
            "POSITION": 0,
            "TANGENT": 2
          },
          "indices": 3,
          "material": 0,
          "mode": 4
        }
      ]
    }
  ],
  "nodes": [
    {
      "children": [
        1
      ],
      "name": "RootNode (gltf orientation matrix)",
      "rotation": [
        -0.70710678118654746,
        -0,
        -0,
        0.70710678118654757
      ]
    },
    {
      "children": [
        2
      ],
      "name": "RootNode (model correction matrix)"
    },
    {
      "children": [
        3
      ],
      "matrix": [
        1,
        0,
        0,
        0,
        0,
        0,
        1,
        0,
        0,
        -1,
        0,
        0,
        0,
        0,
        0,
        1
      ],
      "name": "6f48ea2621f04a6c8ef494754d81a82c.fbx"
    },
    {
      "children": [
        4
      ],
      "name": "RootNode"
    },
    {
      "children": [
        5
      ],
      "matrix": [
        4.3711388175715626e-08,
        -6.6174449004242214e-24,
        -0.999999999999999,
        0,
        4.3711388225505553e-08,
        0.999999999999999,
        1.9106854552385377e-15,
        0,
        0.99999999999999811,
        -4.3711388225505599e-08,
        4.3711388175715626e-08,
        0,
        81.847175598144531,
        109.11991882324219,
        -0.24836635589599609,
        1
      ],
      "name": "Sphere002"
    },
    {
      "mesh": 0,
      "name": "Sphere002_Material #28_0"
    }
  ],
  "scene": 0,
  "scenes": [
    {
      "name": "OSG_Scene",
      "nodes": [
        0
      ]
    }
  ]
}

